<svg width="1000" height="758" fill="#ffffff" viewBox="0 0 1000 758" xmlns="http://www.w3.org/2000/svg">
<path d="M498.5 1.26684C498.069 1.9636 495.991 2.53368 493.881 2.53368C488.647 2.53368 477.631 13.7845 475.314 21.4957C472.796 29.8784 472.152 41.6119 473.748 50.0401C476.417 64.1337 476.678 65.2409 477.477 65.8756C478.609 66.7776 481.397 77.9955 481.397 81.6541C481.397 83.3453 481.967 85.0809 482.664 85.5116C483.363 85.9436 483.931 91.6228 483.931 98.18C483.931 104.798 484.497 110.415 485.208 110.855C486.713 111.785 483.643 115.282 481.32 115.282C478.913 115.282 474.855 120.685 475.477 123.062C476.188 125.782 473.343 126.529 456.727 127.993C449.742 128.608 439.465 130.031 433.891 131.155C428.317 132.278 421.191 133.693 418.055 134.296C408.102 136.214 404.82 136.983 402.22 138.006C396.533 140.24 390.484 141.886 387.953 141.886C386.476 141.886 384.915 142.456 384.484 143.153C384.053 143.85 382.423 144.42 380.861 144.42C377.584 144.42 371.206 147.136 371.193 148.537C371.187 149.059 369.506 149.487 367.457 149.487C365.407 149.487 363.379 150.057 362.948 150.754C362.517 151.451 360.774 152.021 359.073 152.021C357.371 152.021 355.98 152.591 355.98 153.287C355.98 153.984 354.84 154.554 353.447 154.554C352.053 154.554 350.913 155.124 350.913 155.821C350.913 156.518 349.573 157.088 347.935 157.088C346.297 157.088 342.163 158.598 338.75 160.444C335.337 162.29 328.709 165.743 324.023 168.117C319.336 170.492 315.178 172.958 314.784 173.596C314.116 174.676 311.071 176.181 302.456 179.686C300.541 180.466 298.973 181.686 298.973 182.398C298.973 183.109 298.117 183.692 297.072 183.692C296.027 183.692 295.172 184.224 295.172 184.874C295.172 185.523 294.014 186.422 292.598 186.871C291.182 187.321 288.643 189.069 286.954 190.758C285.267 192.445 283.214 193.826 282.393 193.826C281.573 193.826 279.979 194.86 278.851 196.123C277.725 197.386 273.953 200.329 270.469 202.663C266.985 204.996 262.186 208.808 259.806 211.134C255.017 215.814 252.771 216.404 251.579 213.3C250.796 211.261 245.881 211.311 240.579 213.414C238.751 214.139 230.563 208.068 230.563 205.988C230.563 205.571 228.283 202.882 225.496 200.01C222.709 197.138 220.429 194.001 220.429 193.04C220.429 192.079 219.859 191.293 219.162 191.293C218.465 191.293 217.895 190.823 217.895 190.247C217.895 188.53 204.159 163.44 202.08 161.361C201.023 160.305 200.159 158.958 200.159 158.368C200.159 156.86 191.168 147.934 187.586 145.884C176.563 139.578 175.861 139.352 167.243 139.352C158.798 139.352 152.019 141.135 152.019 143.357C152.019 143.941 151.424 144.42 150.696 144.42C149.082 144.42 143.151 150.196 143.151 151.769C143.151 152.389 142.236 154.734 141.116 156.979C139.616 159.987 139.298 162.803 139.91 167.696C140.815 174.947 146.045 187.492 148.161 187.492C148.889 187.492 149.502 188.205 149.524 189.076C149.544 189.947 151.112 191.95 153.007 193.529C154.903 195.107 158.164 197.814 160.254 199.545C162.344 201.275 164.768 202.692 165.638 202.693C166.509 202.693 167.221 203.174 167.221 203.762C167.221 204.349 169.93 206.202 173.239 207.879C176.549 209.557 179.446 211.357 179.678 211.879C179.911 212.401 181.353 212.829 182.883 212.829C184.412 212.829 186.486 213.969 187.491 215.363C188.495 216.756 190.284 217.896 191.465 217.896C192.647 217.896 193.803 218.335 194.037 218.869C194.268 219.405 196.169 221.158 198.259 222.767C213.592 234.567 215.887 237.863 212.522 243.251C211.272 245.254 211.272 246.28 212.522 248.283C214.838 251.989 214.438 256.464 211.561 259.069C210.167 260.329 209.027 261.838 209.027 262.421C209.027 263.003 207.317 265.115 205.227 267.113C203.136 269.109 201.426 271.103 201.426 271.543C201.426 272.266 199.106 275.355 195.704 279.163C192.988 282.201 184.957 293.959 184.957 294.897C184.957 295.438 183.817 296.702 182.423 297.707C181.03 298.712 179.89 300.547 179.89 301.788C179.89 303.027 179.32 304.041 178.623 304.041C177.926 304.041 177.356 304.651 177.356 305.397C177.356 306.142 175.766 309.135 173.823 312.048C171.88 314.96 168.887 320.193 167.172 323.677C165.457 327.161 163.626 330.202 163.104 330.433C162.582 330.666 162.154 331.948 162.154 333.284C162.154 334.619 161.584 335.712 160.887 335.712C160.19 335.712 159.62 336.852 159.62 338.246C159.62 339.639 159.05 340.78 158.354 340.78C157.657 340.78 157.087 341.92 157.087 343.313C157.087 344.707 156.517 345.847 155.82 345.847C155.123 345.847 154.553 346.725 154.553 347.798C154.553 348.871 153.409 351.991 152.01 354.733C148.197 362.206 143.311 375.614 140.144 387.295C138.591 393.021 136.922 398.104 136.436 398.592C135.948 399.078 135.55 401.661 135.55 404.333C135.55 407.004 134.98 409.189 134.284 409.189C133.587 409.189 133.017 411.469 133.017 414.256C133.017 417.043 132.447 419.324 131.75 419.324C131.053 419.324 130.483 421.285 130.483 423.683C130.483 426.081 129.913 428.394 129.216 428.825C128.52 429.256 127.949 432.391 127.949 435.793C127.949 439.194 127.379 442.329 126.683 442.76C125.986 443.191 125.416 447.341 125.416 451.983C125.416 463.572 122.945 473.798 120.147 473.798C118.001 473.798 113.932 478.631 112.313 483.104C111.598 485.079 110.532 485.332 105.455 484.732C89.0993 482.799 82.4953 481.65 77.2759 479.828C41.3116 467.281 20.7103 468.34 5.3828 483.527C3.81445 485.08 2.53241 487.232 2.53241 488.309C2.53241 489.386 1.96233 490.267 1.26557 490.267C0.529539 490.267 0 494.383 0 500.085C0.00126684 508.608 0.400321 510.366 3.02901 513.422L6.05549 516.941L142.063 517.036C216.866 517.089 439.592 517.065 637.008 516.985C964.359 516.851 996.125 516.66 997.975 514.809C1000.4 512.389 1000.77 496.379 998.423 495.597C997.642 495.336 997.001 494.271 997.001 493.228C997.001 490.694 987.708 481.888 982.666 479.644C975.31 476.371 970.083 475.065 964.337 475.065C957.391 475.065 942.339 477.613 940.69 479.069C940.028 479.654 937.605 480.132 935.306 480.132C933.006 480.132 931.125 480.702 931.125 481.399C931.125 482.095 929.415 482.666 927.325 482.666C925.234 482.666 923.524 483.182 923.524 483.815C923.524 485.074 915.008 486.211 897.871 487.245C888.355 487.818 886.786 487.63 886.786 485.923C886.786 484.828 886.216 483.932 885.519 483.932C884.822 483.932 884.252 483.322 884.252 482.576C884.252 480.627 881.297 477.947 878.567 477.418C877.226 477.159 876.01 475.611 875.719 473.798C875.088 469.858 873.037 451.638 872.084 441.493C871.691 437.313 870.848 433.35 870.21 432.689C869.572 432.026 869.044 429.461 869.036 426.988C869.028 424.514 868.133 419.64 867.045 416.157C865.956 412.673 863.733 404.977 862.104 399.054C858.377 385.509 852.249 368.151 850.998 367.595C850.474 367.362 850.047 365.51 850.047 363.478C850.047 361.446 849.477 359.782 848.781 359.782C848.084 359.782 847.514 358.642 847.514 357.249C847.514 355.855 846.944 354.715 846.247 354.715C845.55 354.715 844.98 353.29 844.98 351.548C844.98 349.806 844.41 348.381 843.713 348.381C843.016 348.381 842.446 347.64 842.446 346.732C842.446 344.403 839.467 338.267 838.329 338.256C837.806 338.251 837.379 337.106 837.379 335.712C837.379 334.319 836.809 333.179 836.112 333.179C835.415 333.179 834.845 332.085 834.845 330.75C834.845 329.415 834.418 328.133 833.895 327.9C833.372 327.668 831.54 324.627 829.822 321.144C826.597 314.602 820.9 305.155 819.509 304.041C819.073 303.693 817.549 301.128 816.123 298.341C814.696 295.553 812.34 292.014 810.886 290.476C809.431 288.937 808.242 287.085 808.242 286.359C808.242 285.633 807.672 285.039 806.975 285.039C806.278 285.039 805.708 284.184 805.708 283.138C805.708 282.093 805.138 281.238 804.441 281.238C803.744 281.238 803.174 280.663 803.174 279.96C803.174 279.257 801.464 276.892 799.374 274.705C797.284 272.517 795.573 270.243 795.573 269.65C795.573 269.058 793.293 266.224 790.506 263.352C784.855 257.528 784.561 256.598 787.455 253.703C788.879 252.28 789.228 250.535 788.64 247.776C788.181 245.626 787.596 242.891 787.339 241.699C786.936 239.838 791.66 235.089 801.274 227.689C801.971 227.153 804.251 225.301 806.341 223.574C808.432 221.846 810.855 220.432 811.726 220.431C812.597 220.431 813.309 219.966 813.309 219.4C813.309 218.832 815.304 217.586 817.743 216.629C820.182 215.673 822.177 214.426 822.177 213.859C822.177 213.293 823.477 212.829 825.064 212.829C826.653 212.829 828.773 211.689 829.778 210.295C830.783 208.902 832.483 207.762 833.556 207.762C834.629 207.762 837.781 205.778 840.56 203.352C843.339 200.927 846.037 198.932 846.552 198.918C848.064 198.878 854.437 191.77 856.44 187.891C857.453 185.93 858.961 183.605 859.791 182.726C863.178 179.135 863.563 160.692 860.329 156.9C855.489 151.225 853.848 148.979 853.848 148.026C853.848 147.436 852.993 146.953 851.948 146.953C850.903 146.953 850.047 146.383 850.047 145.686C850.047 144.99 848.941 144.42 847.589 144.42C846.236 144.42 844.777 143.85 844.347 143.153C843.379 141.588 829.289 141.473 826.276 143.005C825.067 143.62 822.377 144.904 820.298 145.855C818.221 146.808 814.857 149.154 812.826 151.071C810.794 152.986 808.4 154.554 807.506 154.554C806.611 154.554 805.518 155.691 805.077 157.08C804.636 158.47 803.6 160.322 802.774 161.198C798.917 165.288 794.307 172.315 794.307 174.105C794.307 175.197 793.736 176.091 793.04 176.091C792.343 176.091 791.773 177.231 791.773 178.624C791.773 180.018 791.203 181.158 790.506 181.158C789.809 181.158 789.239 182.298 789.239 183.692C789.239 185.085 788.765 186.225 788.186 186.225C787.608 186.225 786.324 187.794 785.336 189.709C784.348 191.625 782.54 194.298 781.321 195.649C780.103 197 779.104 198.726 779.104 199.487C779.104 200.247 777.964 201.69 776.571 202.694C775.177 203.699 774.037 205.009 774.037 205.607C774.037 206.205 771.781 208.861 769.022 211.511C764.361 215.991 763.596 216.284 758.178 215.673C754.66 215.276 751.162 215.651 749.355 216.618C746.614 218.085 745.877 217.765 740.589 212.807C737.413 209.83 732.665 205.95 730.039 204.185C727.412 202.419 724.342 199.936 723.215 198.667C722.088 197.399 720.516 196.36 719.72 196.36C718.925 196.36 716.483 194.65 714.297 192.559C712.109 190.469 709.549 188.759 708.607 188.759C707.665 188.759 706.895 188.295 706.895 187.729C706.895 187.161 704.899 185.915 702.461 184.958C700.022 184.002 698.027 182.755 698.027 182.188C698.027 181.622 697.012 181.158 695.773 181.158C694.533 181.158 692.697 180.018 691.693 178.624C690.688 177.231 688.899 176.091 687.719 176.091C686.537 176.091 685.38 175.593 685.147 174.986C684.915 174.378 681.875 172.377 678.391 170.541C674.907 168.704 671.202 166.706 670.156 166.103C665.028 163.14 657.055 159.622 655.467 159.622C654.488 159.622 653.687 159.052 653.687 158.355C653.687 157.658 652.547 157.088 651.154 157.088C649.76 157.088 648.62 156.518 648.62 155.821C648.62 155.124 647.229 154.554 645.528 154.554C643.826 154.554 642.083 153.984 641.652 153.287C641.222 152.591 639.764 152.021 638.411 152.021C637.058 152.021 635.952 151.451 635.952 150.754C635.952 150.057 634.241 149.487 632.151 149.487C630.061 149.487 628.351 148.917 628.351 148.22C628.351 147.523 626.925 146.953 625.184 146.953C623.442 146.953 622.016 146.383 622.016 145.686C622.016 144.99 620.306 144.42 618.216 144.42C616.126 144.42 614.415 143.912 614.415 143.291C614.415 142.671 612.563 141.857 610.298 141.483C608.033 141.108 603.616 140.149 600.48 139.352C597.345 138.555 592.921 137.595 590.651 137.22C588.379 136.845 586.208 136.032 585.825 135.412C585.442 134.792 583.375 134.285 581.233 134.285C579.091 134.285 575.276 133.752 572.757 133.098C567.507 131.739 541.524 128.067 533.971 127.619C529.626 127.36 528.842 126.866 528.472 124.15C528.234 122.408 525.766 118.912 522.986 116.382L517.933 111.781L518.583 101.813C519.37 89.7124 520.645 80.8813 521.85 79.1774C523.959 76.1965 530.485 51.0802 531.443 42.2592C532.443 33.0417 529.817 21.0739 525.44 14.9145C521.025 8.70191 517.182 5.06735 515.026 5.06735C513.949 5.06735 513.068 4.49728 513.068 3.80052C513.068 3.10375 511.643 2.53368 509.901 2.53368C508.159 2.53368 506.734 1.9636 506.734 1.26684C506.734 0.570077 505.058 0 503.008 0C500.959 0 498.93 0.570077 498.5 1.26684ZM469.628 176.091C469.993 177.484 471.08 178.624 472.044 178.624C473.007 178.624 473.796 179.194 473.796 179.891C473.796 180.588 475.18 181.158 476.871 181.158C480.932 181.158 483.931 187.159 483.931 195.288C483.931 198.664 484.501 201.427 485.198 201.427C485.948 201.427 486.465 206.048 486.465 212.754C486.465 218.984 487.035 224.433 487.732 224.864C488.478 225.325 488.998 232.875 488.998 243.233C488.998 253.591 488.478 261.141 487.732 261.602C487.035 262.033 486.465 266.309 486.465 271.103C486.465 275.898 485.895 280.174 485.198 280.605C484.501 281.035 483.931 283.634 483.931 286.38C483.931 289.127 483.361 291.373 482.664 291.373C481.967 291.373 481.397 294.189 481.397 297.632C481.397 301.076 480.827 304.244 480.131 304.675C479.434 305.105 478.864 306.666 478.864 308.143C478.864 309.62 478.325 312.58 477.668 314.719C474.194 326.013 467.13 346.764 466.105 348.68C465.458 349.889 464.928 351.994 464.928 353.355C464.928 354.717 464.358 356.184 463.662 356.615C462.955 357.052 462.395 362.938 462.395 369.917C462.395 376.896 462.955 382.782 463.662 383.219C464.358 383.649 464.928 384.819 464.928 385.817C464.928 389.091 474.354 399.03 477.52 399.095C481.364 399.173 483.931 402.381 483.931 407.111C483.931 409.647 483.327 411.723 482.589 411.723C481.852 411.723 481.6 412.293 482.031 412.989C482.477 413.712 481.381 414.256 479.482 414.256C475.325 414.256 472.039 417.421 471.716 421.733C471.579 423.543 471.422 425.451 471.365 425.975C471.209 427.42 463.662 427.11 463.662 425.658C463.662 424.961 462.807 424.391 461.761 424.391C460.716 424.391 459.861 423.834 459.861 423.151C459.861 421.775 453.413 424.24 452.074 426.128C451.32 427.192 443.753 422.778 442 420.253C441.011 418.828 442.108 413.15 443.543 412.262C445.096 411.303 444.954 396.521 443.392 396.521C442.695 396.521 442.125 395.095 442.125 393.353C442.125 391.612 441.555 390.186 440.859 390.186C440.162 390.186 439.592 389.369 439.592 388.371C439.592 386.13 428.308 374.984 426.039 374.984C425.132 374.984 424.39 374.414 424.39 373.717C424.39 373.021 423.284 372.451 421.931 372.451C420.578 372.451 419.12 371.88 418.689 371.184C418.258 370.487 416.515 369.917 414.814 369.917C413.112 369.917 411.721 369.347 411.721 368.65C411.721 367.953 410.914 367.383 409.926 367.383C408.939 367.383 407.942 366.942 407.709 366.403C407.477 365.864 403.012 363.205 397.786 360.493C392.56 357.782 388.095 355.087 387.863 354.506C387.63 353.924 386.348 353.448 385.012 353.448C383.677 353.448 382.584 352.878 382.584 352.181C382.584 351.484 381.729 350.914 380.684 350.914C379.639 350.914 378.783 350.344 378.783 349.647C378.783 348.951 377.769 348.381 376.53 348.381C375.29 348.381 373.454 347.24 372.449 345.847C371.445 344.453 369.87 343.313 368.949 343.313C368.029 343.313 366.052 342.173 364.557 340.78C363.061 339.386 361.09 338.246 360.175 338.246C359.261 338.246 358.514 337.676 358.514 336.979C358.514 336.282 357.95 335.712 357.261 335.712C355.931 335.712 352.475 333.095 347.645 328.428C346.022 326.86 344.223 325.578 343.646 325.578C342.046 325.578 311.641 295.602 311.641 294.023C311.641 293.262 311.167 292.64 310.588 292.64C310.009 292.64 308.73 291.071 307.747 289.156C306.762 287.24 304.956 284.75 303.732 283.624C302.508 282.496 301.506 281.174 301.506 280.682C301.506 280.192 300.794 279.04 299.923 278.122C296.749 274.779 294.478 271.553 291.607 266.316L288.676 260.969L291.483 255.974C294.154 251.223 294.186 250.819 292.168 247.739C291.002 245.958 290.494 244.5 291.04 244.5C291.586 244.5 294.307 242.516 297.086 240.09C299.866 237.665 302.526 235.67 303 235.656C303.472 235.643 304.613 234.92 305.534 234.048C306.453 233.178 309.772 230.755 312.908 228.664C316.043 226.574 319.324 224.189 320.2 223.364C321.075 222.538 322.927 221.502 324.317 221.061C325.707 220.62 326.843 219.728 326.843 219.078C326.843 218.428 327.983 217.896 329.377 217.896C330.77 217.896 331.91 217.326 331.91 216.629C331.91 215.933 332.766 215.363 333.811 215.363C334.856 215.363 335.711 214.793 335.711 214.096C335.711 213.399 336.851 212.829 338.245 212.829C339.638 212.829 340.778 212.259 340.778 211.562C340.778 210.865 341.918 210.295 343.312 210.295C344.706 210.295 345.846 209.725 345.846 209.028C345.846 208.332 346.986 207.762 348.379 207.762C349.773 207.762 350.913 207.191 350.913 206.495C350.913 205.798 352.053 205.228 353.447 205.228C354.84 205.228 355.98 204.658 355.98 203.961C355.98 203.264 357.121 202.694 358.514 202.694C359.908 202.694 361.048 202.124 361.048 201.427C361.048 200.731 361.967 200.161 363.092 200.161C364.216 200.161 367.21 199.088 369.743 197.775C372.277 196.464 376.915 194.412 380.05 193.213C383.186 192.016 387.623 190.24 389.911 189.264C392.199 188.29 395.335 187.472 396.879 187.448C398.423 187.422 401.111 186.588 402.853 185.592C404.595 184.596 407.555 183.761 409.43 183.736C411.304 183.712 413.152 183.185 413.535 182.564C413.918 181.945 416.089 181.114 418.361 180.717C420.631 180.321 425.625 179.374 429.457 178.613C433.289 177.851 438.705 176.914 441.492 176.53C444.279 176.145 447.102 175.319 447.763 174.695C448.424 174.069 453.466 173.557 458.967 173.557C467.9 173.557 469.037 173.827 469.628 176.091ZM545.373 174.824C545.803 175.52 549.794 176.091 554.241 176.091C558.687 176.091 562.678 176.661 563.108 177.357C563.539 178.054 566.39 178.624 569.443 178.624C572.496 178.624 575.307 179.131 575.691 179.752C576.073 180.371 578.245 181.185 580.516 181.56C587.304 182.681 594.578 184.518 597.947 185.963C599.688 186.709 604.534 188.295 608.715 189.487C615.637 191.46 627.483 196.471 640.189 202.802C642.867 204.136 645.86 205.228 646.84 205.228C647.819 205.228 648.62 205.659 648.62 206.186C648.62 206.713 650.472 207.941 652.737 208.918C655.002 209.895 658.367 211.743 660.217 213.028C662.066 214.312 664.229 215.363 665.021 215.363C665.814 215.363 667.686 216.503 669.181 217.896C670.677 219.29 672.648 220.43 673.563 220.43C674.476 220.43 675.224 220.861 675.224 221.388C675.224 221.915 676.791 223.057 678.708 223.928C680.624 224.799 684.465 227.503 687.245 229.938C690.024 232.372 692.756 234.365 693.314 234.365C696.607 234.365 712.079 248.324 709.745 249.191C707.965 249.851 707.539 257.168 709.28 257.168C711.427 257.168 711.685 263.998 709.696 268.168C708.594 270.48 707.228 272.37 706.66 272.37C706.093 272.37 705.628 273.1 705.628 273.991C705.628 274.882 704.488 276.433 703.094 277.438C701.701 278.442 700.56 279.993 700.56 280.885C700.56 281.775 699.99 282.505 699.294 282.505C698.597 282.505 698.027 283.36 698.027 284.405C698.027 285.45 697.457 286.306 696.76 286.306C696.063 286.306 695.493 286.869 695.493 287.558C695.493 289.464 692.392 292.916 675.857 309.411C657.693 327.534 657.053 328.111 655.165 328.111C654.353 328.111 653.687 328.547 653.687 329.079C653.687 329.611 651.407 331.456 648.62 333.179C645.833 334.901 643.553 336.746 643.553 337.278C643.553 337.81 642.698 338.246 641.652 338.246C640.607 338.246 639.752 338.816 639.752 339.513C639.752 340.21 638.897 340.78 637.852 340.78C635.952 342.046 637.852 340.78 635.952 342.046C634.051 343.313 634.051 343.313 634.051 343.313C632.151 344.58 634.051 343.313 632.151 344.58C630.251 345.847 632.151 344.58 630.251 345.847C628.351 347.114 630.251 345.847 628.351 347.114C628.351 347.811 627.544 348.381 626.556 348.381C625.569 348.381 624.572 348.822 624.339 349.36C624.107 349.898 619.316 352.699 613.693 355.584C595.158 365.089 585.928 370.087 584.708 371.277C580.591 372.451 584.708 371.277 580.591 372.451C577.677 373.717 580.591 372.451 577.677 373.717C575.667 374.984 577.677 373.717 575.667 374.984C572.5 376.5 560.898 387.534 558.013 393.493C554.893 399.936 554.765 411.334 557.759 415.904C559.94 419.234 559.917 419.324 555.966 423.1C551.281 427.577 547.823 427.947 544.667 424.307C543.419 422.868 542.212 421.612 541.985 421.515C541.584 421.344 537.122 424.844 534.075 427.72C532.009 429.67 528.27 426.89 528.27 423.405C528.27 419.463 526.936 416.79 524.968 416.79C523.997 416.79 523.203 416.22 523.203 415.523C523.203 414.826 522.063 414.256 520.669 414.256C518.506 414.256 518.136 413.411 518.136 408.466C518.136 402.812 520.165 399.054 523.218 399.054C525.45 399.054 532.918 390.86 534.985 386.144C537.361 380.715 539.672 372.228 539.672 368.921C539.672 367.491 537.107 358.563 533.971 349.082C530.836 339.603 528.27 331.006 528.27 329.979C528.27 328.951 527.762 328.111 527.142 328.111C526.081 328.111 525.367 325.191 523.654 313.852C523.259 311.234 522.425 308.778 521.802 308.393C521.179 308.008 520.669 306.049 520.669 304.041C520.669 302.033 520.099 300.038 519.403 299.607C518.706 299.177 518.136 296.122 518.136 292.818C518.136 289.514 517.61 286.271 516.968 285.609C513.189 281.716 513.203 204.8 516.982 200.857C517.616 200.195 518.136 197.316 518.136 194.458C518.136 186.797 520.508 182.874 526.683 180.327C529.642 179.107 532.389 177.084 532.787 175.832C533.336 174.1 534.831 173.557 539.049 173.557C542.097 173.557 544.942 174.127 545.373 174.824ZM265.134 291.443C266.588 292.798 268.527 293.907 269.441 293.907C270.355 293.907 271.102 294.477 271.102 295.173C271.102 295.87 271.957 296.44 273.002 296.44C274.048 296.44 274.903 296.923 274.903 297.513C274.903 298.104 275.978 299.102 277.292 299.73C280.749 301.385 287.039 306.414 293.38 312.592C296.42 315.554 299.263 317.977 299.697 317.977C300.133 317.977 302.002 319.675 303.849 321.75C309.639 328.257 309.999 328.631 315.373 333.717C318.263 336.452 321.578 340.299 322.741 342.268C323.904 344.237 325.303 345.847 325.85 345.847C326.396 345.847 326.843 346.702 326.843 347.747C326.843 348.792 327.279 349.647 327.811 349.647C328.343 349.647 330.188 351.928 331.91 354.715C333.633 357.502 335.478 359.782 336.01 359.782C336.542 359.782 336.978 360.713 336.978 361.851C336.978 362.989 338.033 364.841 339.324 365.968C340.615 367.094 342.689 370.012 343.935 372.451C345.181 374.889 346.547 377.17 346.973 377.518C348.179 378.506 351.606 384.708 358.173 397.787C361.496 404.407 364.642 410.012 365.165 410.244C365.688 410.477 366.115 412.044 366.115 413.728C366.115 415.413 366.685 416.79 367.382 416.79C368.079 416.79 368.649 417.93 368.649 419.324C368.649 420.717 369.079 421.857 369.606 421.857C370.133 421.857 371.371 423.68 372.357 425.909C374.282 430.258 384.206 440.86 386.352 440.86C387.066 440.86 387.651 441.43 387.651 442.127C387.651 442.823 388.757 443.394 390.11 443.394C391.463 443.394 392.921 443.964 393.352 444.66C393.783 445.357 398.376 445.927 403.562 445.927C409.001 445.927 412.988 445.391 412.988 444.66C412.988 442.822 417.036 443.181 419.785 445.263C422.354 447.209 426.054 453.528 424.624 453.528C424.139 453.528 422.962 455.288 422.011 457.439C420.585 460.658 420.569 461.891 421.915 464.407C422.815 466.088 424.025 467.464 424.604 467.464C425.183 467.464 425.656 468.592 425.656 469.973C425.656 471.559 424.609 472.695 422.806 473.06C412.918 475.066 412.988 475.027 412.978 478.572C412.968 482.294 408.733 485.199 403.321 485.199C400.538 485.199 395.252 479.411 395.252 476.362C395.252 474.159 392.688 471.984 384.931 467.605C378.87 464.185 376.713 463.663 368.636 463.663C359.981 463.663 353.406 464.929 348.08 467.619C346.871 468.23 345.16 468.734 344.28 468.738C343.399 468.743 341.149 469.544 339.28 470.519C337.411 471.495 333.991 472.671 331.679 473.134C326.663 474.14 315.82 477.344 312.274 478.869C310.881 479.469 307.745 480.304 305.307 480.727C302.868 481.149 298.022 482.076 294.539 482.788C291.055 483.499 285.782 484.39 282.82 484.767C279.859 485.146 277.436 485.967 277.436 486.594C277.436 488.207 208.125 488.081 207.127 486.466C206.696 485.769 202.991 485.199 198.892 485.199C194.794 485.199 191.089 484.629 190.658 483.932C190.227 483.236 188.119 482.666 185.972 482.666C181.718 482.666 178.728 479.79 178.663 475.635C178.614 472.443 176.32 469.997 173.377 469.997C172.163 469.997 170.833 469.45 170.42 468.781C169.351 467.053 172.194 447.038 175.104 435.793C177.782 425.446 179.638 417.195 180.732 410.772C181.119 408.507 181.942 406.655 182.562 406.655C183.182 406.655 183.699 405.373 183.709 403.805C183.73 400.715 186.484 392.038 187.89 390.632C188.367 390.155 188.758 388.467 188.758 386.882C188.758 385.298 189.328 383.649 190.025 383.219C190.721 382.788 191.291 381.33 191.291 379.977C191.291 378.624 191.861 377.518 192.558 377.518C193.255 377.518 193.825 376.378 193.825 374.984C193.825 373.591 194.395 372.451 195.092 372.451C195.789 372.451 196.359 371.541 196.359 370.43C196.359 368.572 209.631 340.633 211.932 337.648C214.54 334.264 221.78 322.239 222.418 320.231C222.812 318.991 223.664 317.977 224.314 317.977C224.964 317.977 225.496 317.121 225.496 316.076C225.496 315.031 226.066 314.176 226.763 314.176C227.46 314.176 228.03 313.446 228.03 312.556C228.03 311.664 229.17 310.113 230.563 309.109C231.957 308.104 233.097 306.553 233.097 305.662C233.097 304.771 233.544 304.041 234.09 304.041C234.637 304.041 236.012 302.473 237.146 300.557C240.46 294.959 244.007 291.373 246.23 291.373C247.368 291.373 248.299 291.943 248.299 292.64C248.299 294.72 252.744 294.076 255.33 291.621C258.579 288.536 261.949 288.474 265.134 291.443ZM745.875 293.907C748.751 296.586 752.501 297.303 752.501 295.173C752.501 292.451 757.067 294.112 759.468 297.707C760.862 299.794 762.429 301.503 762.952 301.504C763.475 301.506 763.902 302.237 763.902 303.128C763.902 304.02 765.043 305.57 766.436 306.575C767.83 307.58 768.971 308.988 768.971 309.705C768.972 310.422 770.381 312.647 772.103 314.647C773.823 316.649 775.571 319.357 775.987 320.665C776.402 321.973 777.273 323.044 777.923 323.044C778.572 323.044 779.104 323.923 779.104 324.997C779.104 326.072 780.245 328.175 781.638 329.669C783.032 331.166 784.172 333.137 784.172 334.051C784.172 334.965 784.742 335.712 785.439 335.712C786.135 335.712 786.706 336.852 786.706 338.246C786.706 339.639 787.276 340.78 787.972 340.78C788.669 340.78 789.239 341.635 789.239 342.68C789.239 343.725 789.809 344.58 790.506 344.58C791.203 344.58 791.773 345.72 791.773 347.114C791.773 348.507 792.32 349.647 792.989 349.647C793.658 349.647 794.888 351.928 795.723 354.715C796.558 357.502 797.721 359.782 798.307 359.782C798.894 359.782 799.374 360.622 799.374 361.65C799.374 362.676 801.369 367.615 803.808 372.627C806.246 377.637 808.242 382.505 808.242 383.445C808.242 384.384 808.812 386.286 809.509 387.67C810.205 389.054 811.346 391.319 812.042 392.702C812.739 394.087 813.309 396.333 813.309 397.695C813.309 399.057 813.879 400.524 814.576 400.954C815.273 401.385 815.843 403.413 815.843 405.463C815.843 407.513 816.413 409.189 817.11 409.189C817.806 409.189 818.376 411.184 818.376 413.623C818.376 416.061 818.947 418.057 819.643 418.057C820.34 418.057 820.91 420.622 820.91 423.758C820.91 426.893 821.409 429.458 822.02 429.458C822.63 429.458 823.455 432.452 823.853 436.109C825.442 450.731 827.181 462.6 828.365 466.89C829.418 470.703 829.28 471.508 827.479 472.06C822.93 473.453 821.528 474.815 821.124 478.235C820.373 484.592 816.873 486.121 800.324 487.321C795.622 487.662 791.773 488.464 791.773 489.104C791.773 489.779 778.235 490.267 759.468 490.267C738.777 490.267 727.164 489.812 727.164 489C727.164 488.287 723.599 487.733 719.004 487.733C714.516 487.733 710.492 487.163 710.062 486.466C709.631 485.769 707.318 485.199 704.92 485.199C702.521 485.199 700.56 484.629 700.56 483.932C700.56 483.236 699.318 482.666 697.8 482.666C696.282 482.666 693.289 482.139 691.149 481.495C689.009 480.851 682.128 478.8 675.857 476.937C669.586 475.075 663.166 473.044 661.589 472.427C646.902 466.673 634.984 463.51 630.322 464.129C618.998 465.634 615.458 466.574 614.816 468.246C614.447 469.209 613.493 469.998 612.696 469.998C610.336 470.001 605.062 475.35 602.392 480.449C599.996 485.023 599.657 485.199 593.225 485.199C586.83 485.199 586.545 485.055 586.545 481.816C586.545 477.307 583.165 473.798 578.822 473.798C576.882 473.798 574.967 473.271 574.568 472.626C573.69 471.203 576.39 464.93 577.881 464.93C579.722 464.93 579.034 458.867 576.958 456.789C574.578 454.411 575.298 451.633 579.58 446.668C583.007 442.694 582.058 442.637 592.291 447.432C594.771 448.594 596.452 448.594 599.666 447.432C601.955 446.605 605.07 445.927 606.588 445.927C608.105 445.927 609.348 445.357 609.348 444.66C609.348 443.964 610.24 443.394 611.331 443.394C613.928 443.394 625.089 431.892 627.267 426.97C628.204 424.855 629.4 423.124 629.927 423.124C630.454 423.124 630.884 421.984 630.884 420.59C630.884 419.197 631.454 418.057 632.151 418.057C632.848 418.057 633.418 416.632 633.418 414.89C633.418 413.148 633.988 411.723 634.685 411.723C635.382 411.723 635.952 410.582 635.952 409.189C635.952 407.795 636.379 406.65 636.902 406.645C637.425 406.64 638.487 405.357 639.263 403.795C644.532 393.195 649.395 384.422 650.204 384.064C650.727 383.831 651.154 382.817 651.154 381.809C651.154 380.802 653.434 377.092 656.221 373.567C659.008 370.041 661.289 366.708 661.289 366.162C661.289 365.615 663.284 362.99 665.722 360.327C668.161 357.665 670.156 355.004 670.156 354.415C670.156 353.824 671.297 352.118 672.69 350.623C674.084 349.127 675.224 347.194 675.224 346.327C675.224 345.461 676.241 344.428 677.484 344.034C678.727 343.639 680.717 341.668 681.906 339.653C684.163 335.835 696.18 323.044 697.512 323.044C697.933 323.044 699.789 321.454 701.636 319.511C703.483 317.569 706.99 314.588 709.428 312.888C711.867 311.188 715.118 308.645 716.652 307.236C721.56 302.729 723.199 301.528 726.482 300.032C728.251 299.226 729.698 298.088 729.698 297.503C729.698 296.919 730.453 296.44 731.376 296.44C732.3 296.44 734.152 295.334 735.494 293.981C738.671 290.779 742.488 290.751 745.875 293.907ZM840.033 570.077C837.512 575.939 836.98 576.412 832.91 576.412C830.49 576.412 828.511 576.982 828.511 577.678C828.511 578.51 801.895 578.945 751.195 578.945C682.805 578.945 673.791 579.169 673.13 580.892C671.851 584.225 676.361 587.813 681.832 587.813H686.781L685.907 593.831C685.427 597.141 684.538 600.808 683.929 601.981C683.321 603.156 682.825 605.531 682.825 607.26C682.825 608.99 682.398 610.595 681.875 610.828C681.351 611.06 679.582 614.955 677.94 619.484C671.215 638.036 670.246 640.308 670.202 637.642C670.177 636.133 669.729 634.708 669.206 634.475C668.109 633.987 665.238 628.755 654.1 606.941C649.689 598.301 645.442 590.462 644.661 589.522C643.5 588.124 644.498 587.813 650.152 587.813C656.15 587.813 657.274 587.413 658.69 584.766C659.587 583.092 659.934 581.096 659.463 580.332C658.876 579.384 647.992 578.945 625.018 578.945H591.431L591.838 575.461C592.225 572.15 591.957 571.959 586.393 571.599C581.386 571.273 580.441 571.595 579.86 573.816C579.486 575.244 578.273 576.412 577.163 576.412C576.052 576.412 575.143 576.982 575.143 577.678C575.143 578.375 573.832 578.945 572.23 578.945C570.627 578.945 568.613 579.648 567.753 580.509C565.944 582.318 486.76 582.847 478.547 581.105C474.169 580.177 473.796 579.755 473.796 575.721C473.796 571.447 473.676 571.344 468.639 571.344C462.48 571.344 459.861 573.585 459.861 578.855C459.861 580.995 459.291 582.746 458.594 582.746C457.898 582.746 457.327 584.741 457.327 587.18C457.327 589.618 456.757 591.614 456.061 591.614C455.364 591.614 454.794 593.039 454.794 594.781C454.794 596.523 454.363 597.948 453.835 597.948C452.785 597.948 449.726 606.891 449.726 609.963C449.726 611.342 451.086 611.883 454.556 611.883C458.446 611.883 459.927 611.148 462.179 608.104C463.716 606.025 466.612 603.476 468.614 602.441C472.393 600.487 500.183 597.109 503.148 598.243C504.526 598.771 504.663 605.102 503.896 632.939C502.603 679.9 501.714 695.924 500.323 697.331C499.668 697.994 499.133 700.382 499.133 702.641C499.133 704.899 498.564 707.099 497.869 707.528C497.172 707.958 492.611 708.644 487.734 709.053L478.864 709.797V714.199V718.602L486.781 717.836C502.74 716.292 528.125 715.438 530.382 716.369C531.659 716.896 538.303 717.605 545.146 717.943L557.588 718.56L557.181 714.311L556.774 710.063L547.032 708.925C537.954 707.865 537.188 707.541 535.784 704.152C534.667 701.455 534.483 689.488 535.071 657.783C535.507 634.279 536.22 611.155 536.656 606.393L537.447 597.735L550.714 598.158C558.011 598.391 564.245 599.008 564.569 599.531C564.893 600.055 566.834 600.482 568.884 600.482C572.293 600.482 572.61 600.855 572.61 604.891C572.61 608.493 573.168 609.442 575.659 610.066C580.269 611.223 584.011 608.645 584.011 604.312C584.011 602.288 584.581 600.279 585.278 599.848C585.975 599.417 586.554 597.246 586.564 595.023C586.575 592.799 587.015 590.301 587.543 589.473C588.638 587.75 599.213 587.529 599.213 589.229C599.213 589.844 600.039 590.347 601.049 590.347C602.059 590.347 604.482 592.485 606.433 595.097C608.385 597.711 610.408 600.038 610.932 600.27C611.455 600.503 611.882 601.5 611.882 602.487C611.882 603.475 612.452 604.282 613.149 604.282C613.845 604.282 614.415 605.137 614.415 606.182C614.415 607.227 614.985 608.083 615.682 608.083C616.379 608.083 616.949 609.223 616.949 610.616C616.949 612.01 617.427 613.15 618.009 613.15C618.592 613.15 621.009 616.855 623.38 621.384C625.751 625.913 627.995 629.619 628.366 629.619C628.737 629.619 630.164 631.757 631.534 634.369C632.905 636.983 634.363 639.405 634.775 639.754C635.185 640.102 636.86 643.38 638.497 647.038C640.132 650.696 641.939 653.689 642.511 653.689C643.084 653.689 643.553 654.829 643.553 656.222C643.553 657.616 644.053 658.756 644.666 658.756C645.278 658.756 646.488 660.466 647.353 662.557C648.218 664.647 649.428 666.357 650.04 666.357C650.653 666.357 651.154 667.497 651.154 668.891C651.154 670.284 651.724 671.424 652.421 671.424C653.117 671.424 653.687 672.292 653.687 673.353C653.687 675.861 640.388 689.16 637.88 689.16C636.819 689.16 635.952 689.73 635.952 690.427C635.952 693.44 631.535 691.232 625.817 685.36C620.411 679.81 619.01 679.026 614.498 679.026C609.62 679.026 609.348 679.227 609.348 682.825C609.348 685.542 610.791 688.11 614.415 691.845C617.202 694.717 619.483 697.853 619.483 698.815C619.483 699.775 620.053 700.562 620.75 700.562C621.446 700.562 622.016 701.702 622.016 703.095C622.016 704.489 622.586 705.629 623.283 705.629C623.98 705.629 624.55 706.412 624.55 707.368C624.55 708.325 627.081 711.44 630.176 714.293C639.642 723.018 646.249 722.995 651.121 714.221C652.777 711.237 654.464 708.511 654.869 708.163C655.635 707.505 662.083 695.726 664.399 690.754C665.127 689.192 666.149 687.909 666.673 687.904C667.196 687.898 667.623 686.753 667.623 685.36C667.623 683.966 668.193 682.826 668.89 682.826C669.586 682.826 670.156 681.971 670.156 680.926C670.156 679.881 670.726 679.026 671.423 679.026C672.12 679.026 672.69 677.885 672.69 676.492C672.69 675.098 673.26 673.958 673.957 673.958C674.654 673.958 675.224 672.818 675.224 671.424C675.224 670.031 675.794 668.891 676.491 668.891C677.187 668.891 677.757 667.751 677.757 666.357C677.757 664.964 678.327 663.823 679.024 663.823C679.721 663.823 680.291 662.732 680.291 661.395C680.291 660.06 680.755 658.778 681.322 658.545C682.693 657.983 690.426 643.535 690.426 641.535C690.426 640.671 690.926 639.775 691.537 639.542C692.147 639.31 694.737 635.13 697.291 630.252C704.809 615.894 707.47 611.275 708.478 610.828C709.001 610.595 709.428 609.313 709.428 607.977C709.428 606.642 709.998 605.549 710.695 605.549C711.392 605.549 711.962 604.409 711.962 603.015C711.962 601.622 712.532 600.482 713.229 600.482C713.926 600.482 714.496 599.341 714.496 597.948C714.496 596.554 715.066 595.414 715.763 595.414C716.459 595.414 717.029 594.518 717.029 593.424C717.029 589.859 720.463 587.813 726.441 587.813C729.626 587.813 732.231 588.383 732.231 589.08C732.231 589.83 736.825 590.347 743.48 590.347H754.727L756.465 594.464C757.848 597.743 758.181 609.291 758.105 651.155C758.048 681.766 757.491 705.282 756.769 707.447C755.94 709.935 754.295 711.538 751.798 712.29C747.786 713.5 743.065 715.381 739.533 717.179C738.324 717.795 736.47 718.298 735.416 718.298C734.361 718.298 733.498 718.868 733.498 719.564C733.498 720.261 732.888 720.831 732.142 720.831C730.089 720.831 727.164 724.182 727.164 726.532C727.164 727.677 727.979 729.428 728.974 730.422C730.948 732.396 739.832 732.941 739.832 731.089C739.832 729.541 757.144 720.831 760.22 720.831C761.568 720.831 763.66 720.328 764.87 719.714C770.019 717.099 780.143 715.764 794.822 715.764C811.413 715.764 812.042 715.532 812.042 709.401C812.042 706.111 810.061 705.196 800.857 704.237C796.448 703.778 792.364 702.905 791.784 702.299C789.368 699.774 788.264 658.822 789.874 631.519C790.121 627.339 790.364 616.935 790.415 608.399L790.506 592.88H803.174C810.775 592.88 815.843 593.387 815.843 594.147C815.843 594.844 816.95 595.414 818.304 595.414C821.767 595.414 829.193 600.033 831.574 603.668C833.933 607.268 834.179 612.043 832.112 614.11C829.504 616.717 833.275 619.484 839.434 619.484H844.98V611.25C844.98 606.721 845.497 603.015 846.129 603.015C846.763 603.015 847.591 600.022 847.974 596.364C849.233 584.29 850.298 578.945 851.447 578.945C852.071 578.945 852.581 578.036 852.581 576.923C852.581 575.812 853.667 573.378 854.994 571.514C858.486 566.61 856.083 563.743 848.48 563.743C842.821 563.743 842.728 563.814 840.033 570.077ZM368.649 570.077C368.649 570.774 366.973 571.344 364.923 571.344C362.873 571.344 360.845 571.914 360.414 572.611C359.984 573.308 358.24 573.878 356.539 573.878C354.838 573.878 353.447 574.448 353.447 575.145C353.447 575.937 345.871 576.412 333.252 576.412C320.432 576.412 312.756 576.901 312.23 577.751C311.775 578.487 311.753 580.482 312.179 582.185C312.883 584.987 313.601 585.279 319.772 585.279H326.588L327.496 591.297C329.028 601.467 329.6 691.978 328.14 693.437C327.427 694.15 326.843 700.036 326.843 706.516C326.843 713.525 326.33 718.298 325.576 718.298C324.879 718.298 324.285 720.436 324.255 723.048C324.206 727.482 323.616 728.199 315.417 733.816C310.587 737.125 306.05 739.834 305.337 739.834C304.624 739.834 304.04 740.404 304.04 741.101C304.04 741.797 302.9 742.367 301.506 742.367C300.113 742.367 298.973 742.938 298.973 743.634C298.973 744.331 297.832 744.901 296.439 744.901C295.045 744.901 293.905 745.471 293.905 746.168C293.905 746.865 292.514 747.435 290.813 747.435C289.112 747.435 287.368 748.005 286.938 748.702C286.507 749.398 285.03 749.969 283.657 749.969C280.364 749.969 279.223 753.203 281.656 755.636C284.1 758.08 295.002 758.207 300.597 755.857C304.457 754.237 313.008 748.983 316.338 746.186C317.18 745.479 318.748 744.901 319.822 744.901C320.897 744.901 321.776 744.438 321.776 743.871C321.776 743.304 323.771 742.057 326.21 741.101C328.648 740.144 330.644 738.898 330.644 738.33C330.644 737.764 331.784 737.3 333.177 737.3C334.571 737.3 335.711 736.73 335.711 736.033C335.711 735.337 337.136 734.766 338.878 734.766C340.62 734.766 342.045 734.196 342.045 733.5C342.045 732.803 343.436 732.233 345.138 732.233C346.839 732.233 348.582 731.663 349.013 730.966C349.443 730.269 351.439 729.699 353.447 729.699C355.455 729.699 357.39 729.225 357.749 728.646C358.106 728.067 362.448 726.83 367.396 725.896C373.668 724.713 376.773 723.488 377.648 721.851C379.713 717.995 376.216 715.764 368.105 715.764H361.048V706.896C361.048 701.829 360.504 698.028 359.781 698.028C359.026 698.028 358.514 693.172 358.514 685.993V673.958H369.841C376.071 673.958 381.52 673.388 381.951 672.691C382.381 671.995 385.232 671.424 388.285 671.424C391.338 671.424 394.188 670.854 394.619 670.158C395.05 669.461 396.793 668.891 398.494 668.891C400.196 668.891 401.587 668.321 401.587 667.624C401.587 666.927 402.727 666.357 404.12 666.357C405.514 666.357 406.654 665.926 406.654 665.399C406.654 664.872 408.506 663.633 410.771 662.645C413.036 661.657 415.811 659.808 416.937 658.536C418.064 657.264 419.412 656.222 419.933 656.222C421.364 656.222 428.822 647.757 430.844 643.838C431.823 641.94 433.622 639.282 434.841 637.931C436.06 636.58 437.058 634.538 437.058 633.391C437.058 632.245 437.466 630.901 437.964 630.402C439.854 628.512 442.015 617.251 442.07 609.012C442.124 600.591 439.901 590.347 438.017 590.347C437.489 590.347 437.058 589.492 437.058 588.447C437.058 587.401 436.488 586.546 435.791 586.546C435.094 586.546 434.524 585.983 434.524 585.293C434.524 583.69 430.487 578.945 429.123 578.945C428.551 578.945 426.86 577.805 425.365 576.412C423.869 575.018 421.646 573.878 420.424 573.878C419.204 573.878 417.853 573.308 417.422 572.611C416.991 571.914 415.248 571.344 413.547 571.344C411.845 571.344 410.454 570.774 410.454 570.077C410.454 569.284 402.642 568.811 389.552 568.811C376.461 568.811 368.649 569.284 368.649 570.077ZM15.7823 574.828C15.3782 576.744 14.5116 579.301 13.8579 580.511C13.203 581.721 12.6671 584.429 12.6671 586.529C12.6671 588.629 12.097 590.347 11.4003 590.347C10.7035 590.347 10.1334 592.057 10.1334 594.147C10.1334 596.238 9.56336 597.948 8.8666 597.948C8.16984 597.948 7.59976 599.088 7.59976 600.482C7.59976 601.875 7.02969 603.015 6.33293 603.015C5.63616 603.015 5.06609 605.01 5.06609 607.449C5.06609 611.783 5.18137 611.883 10.1727 611.883C13.877 611.883 15.5086 611.274 16.1091 609.666C17.8079 605.122 24.5045 600.523 29.4527 600.502C32.0662 600.49 34.2046 600.055 34.2046 599.531C34.2059 599.008 39.9586 598.581 46.9896 598.581H59.772L59.6592 618.851C59.53 642.244 57.4625 679.922 55.6902 691.206C55.0201 695.468 54.4728 700.211 54.4728 701.749C54.4728 706.206 51.6591 707.887 42.3137 709.01C34.9394 709.898 33.5193 710.46 33.2456 712.597C32.5109 718.346 34.2072 718.847 48.981 717.247C65.5792 715.45 85.713 715.308 86.7468 716.982C87.2218 717.751 88.6521 717.763 90.622 717.014C92.6186 716.255 93.7448 716.272 93.7448 717.062C93.7448 718.851 109.408 718.596 111.227 716.777C113.342 714.663 113.127 711.113 110.831 710.233C109.778 709.827 105.311 709.128 100.905 708.676C94.6696 708.037 92.5261 707.263 91.225 705.179C87.9173 699.884 88.5267 627.542 92.089 602.576L92.7845 597.702L105.63 598.196C112.695 598.469 119.04 599.016 119.729 599.411C120.418 599.808 122.549 600.506 124.466 600.964C126.813 601.525 127.949 602.615 127.949 604.306C127.949 605.687 127.27 606.816 126.441 606.816C125.611 606.816 126.038 607.653 127.391 608.675C132.988 612.909 139.351 609.339 139.351 601.965C139.351 599.756 139.921 597.948 140.618 597.948C141.315 597.948 141.885 595.668 141.885 592.88C141.885 590.093 142.455 587.813 143.151 587.813C143.848 587.813 144.418 585.533 144.418 582.746C144.418 579.959 144.988 577.678 145.685 577.678C146.382 577.678 146.952 576.253 146.952 574.511C146.952 571.648 146.454 571.344 141.759 571.344C137.623 571.344 135.844 572.117 133.017 575.145C130.892 577.42 128.188 578.945 126.28 578.945C124.528 578.945 122.855 579.659 122.565 580.529C122.156 581.756 111.805 582.112 76.5056 582.112C37.7835 582.112 30.6702 581.829 28.9397 580.212C27.5081 578.874 27.2142 577.5 27.949 575.569C29.1664 572.365 27.4461 571.344 20.8218 571.344C17.1467 571.344 16.4081 571.855 15.7823 574.828ZM862.716 577.768C862.716 584.181 865.263 585.572 876.697 585.405C882.732 585.318 886.786 585.771 886.786 586.536C886.786 587.242 889.938 587.813 893.828 587.813C898.2 587.813 900.574 588.293 900.088 589.08C899.657 589.777 898.442 590.347 897.389 590.347C894.9 590.347 891.853 593.425 891.853 595.939C891.853 597.024 891.277 600.342 890.574 603.314C889.869 606.285 887.832 615.842 886.047 624.551C884.261 633.261 882.31 642.097 881.712 644.187C881.113 646.278 880.055 650.268 879.361 653.055C875.526 668.441 871.883 679.801 868.902 685.659C868.286 686.869 867.783 688.722 867.783 689.776C867.783 690.831 867.213 691.694 866.516 691.694C865.82 691.694 865.25 692.435 865.25 693.342C865.25 695.672 862.27 701.807 861.132 701.818C860.609 701.824 860.182 702.439 860.182 703.185C860.182 705.119 857.367 707.679 854.104 708.715C850.692 709.798 848.502 713.565 849.609 716.449C850.292 718.229 851.398 718.426 856.255 717.627C863.57 716.428 873.807 716.443 889.636 717.679C898.579 718.377 901.988 718.246 901.988 717.203C901.988 716.411 902.843 715.764 903.888 715.764C904.933 715.764 905.788 715.26 905.788 714.645C905.788 714.03 906.978 713.215 908.432 712.835C910.144 712.386 910.92 711.33 910.635 709.836C910.283 707.996 908.56 707.374 902.112 706.755C891.609 705.749 889.388 703.198 889.347 692.085C889.332 687.772 889.829 683.927 890.452 683.542C891.517 682.884 892.188 679.622 893.921 666.674C894.482 662.482 895.175 661.29 897.048 661.29C898.371 661.29 899.454 660.72 899.454 660.023C899.454 659.246 905.531 658.756 915.151 658.756H930.848L931.679 663.507C932.136 666.12 932.797 670.823 933.151 673.958C933.503 677.094 934.301 680.799 934.926 682.193C935.55 683.586 936.39 687.577 936.794 691.06C937.197 694.544 937.847 700.021 938.237 703.232C938.934 708.967 938.877 709.083 934.95 709.868C931.484 710.561 931.007 711.131 931.356 714.166L931.759 717.664H958.996H986.233V713.23V708.796L979.713 708.417C973.274 708.044 973.184 707.982 972.392 703.35C970.429 691.871 970.052 690.364 968.991 689.708C968.37 689.324 967.863 686.765 967.863 684.018C967.863 681.272 967.293 679.026 966.597 679.026C965.9 679.026 965.33 676.494 965.33 673.4C965.33 670.305 964.76 667.421 964.063 666.991C963.366 666.56 962.796 663.962 962.796 661.215C962.796 658.469 962.226 656.222 961.529 656.222C960.832 656.222 960.262 653.087 960.262 649.255C960.262 645.423 959.692 642.287 958.996 642.287C958.299 642.287 957.729 639.437 957.729 635.953C957.729 632.469 957.159 629.619 956.462 629.619C955.758 629.619 955.195 626.24 955.195 622.018C955.195 617.837 954.673 614.417 954.036 614.417C953.399 614.417 952.575 610.854 952.207 606.499C951.837 602.145 951.159 596.158 950.698 593.197L949.862 587.813H956.329C959.886 587.813 962.796 587.243 962.796 586.546C962.796 585.85 965.402 585.279 968.587 585.279C976.854 585.279 980.8 580.3 976.188 575.688C974.132 573.631 967.863 573.222 967.863 575.145C967.863 575.905 962.821 576.412 955.27 576.412C948.24 576.412 942.33 576.972 941.893 577.678C941.442 578.408 934.727 578.945 926.058 578.945C917.389 578.945 910.673 578.408 910.222 577.678C909.778 576.959 903.452 576.412 895.579 576.412C887.184 576.412 881.718 575.912 881.718 575.145C881.718 574.413 877.706 573.878 872.217 573.878H862.716V577.768ZM209.027 577.678C209.027 578.375 207.539 578.945 205.719 578.945C198.663 578.945 183.491 588.018 172.605 598.747C166.858 604.414 162.154 609.971 162.154 611.099C162.154 612.228 161.584 613.15 160.887 613.15C160.19 613.15 159.62 614.005 159.62 615.05C159.62 616.095 159.05 616.95 158.354 616.95C157.657 616.95 157.087 618.091 157.087 619.484C157.087 620.878 156.517 622.018 155.82 622.018C155.123 622.018 154.553 623.728 154.553 625.818C154.553 627.909 154.063 629.619 153.464 629.619C152.045 629.619 150.315 642.115 150.398 651.789C150.485 662.211 152.099 673.958 153.443 673.958C154.054 673.958 154.553 675.064 154.553 676.417C154.553 677.77 155.123 679.228 155.82 679.659C156.517 680.09 157.087 681.548 157.087 682.901C157.087 684.254 157.657 685.36 158.354 685.36C159.05 685.36 159.62 686.179 159.62 687.181C159.62 691.804 181.533 710.696 186.895 710.696C187.92 710.696 188.758 711.267 188.758 711.963C188.758 712.66 189.898 713.23 191.291 713.23C192.685 713.23 193.825 713.743 193.825 714.369C193.825 715.742 201.408 716.784 218.964 717.82C231.968 718.588 250.833 716.472 250.833 714.245C250.833 713.686 252.258 713.23 254 713.23C255.742 713.23 257.167 712.794 257.167 712.262C257.167 711.73 259.399 710.328 262.127 709.146C264.854 707.964 268.533 705.549 270.303 703.78C272.073 702.01 274.158 700.562 274.936 700.562C276.775 700.562 278.158 699.099 285.894 688.97C289.433 684.337 293.872 677.211 295.76 673.135C297.649 669.059 299.714 664.734 300.35 663.524C300.986 662.315 301.506 659.606 301.506 657.507C301.506 655.407 302.076 653.689 302.773 653.689C303.545 653.689 304.04 647.988 304.04 639.12C304.04 630.252 303.545 624.551 302.773 624.551C302.076 624.551 301.506 622.556 301.506 620.118C301.506 617.679 300.936 615.684 300.239 615.684C299.543 615.684 298.973 614.543 298.973 613.15C298.973 611.756 298.403 610.616 297.706 610.616C297.009 610.616 296.439 609.741 296.439 608.67C296.439 607.601 295.157 605.308 293.589 603.578C284.811 593.883 279.836 589.208 277.512 588.471C276.077 588.015 274.903 587.198 274.903 586.653C274.903 586.109 272.48 584.664 269.519 583.441C266.557 582.219 263.145 580.708 261.935 580.082C260.725 579.457 258.336 578.945 256.626 578.945C254.916 578.945 253.164 578.375 252.733 577.678C252.26 576.915 243.429 576.412 230.489 576.412C217.026 576.412 209.027 576.884 209.027 577.678ZM387.651 581.479C387.651 582.176 389.04 582.746 390.736 582.746C394.472 582.746 407.921 595.641 407.921 599.222C407.921 600.53 408.491 601.951 409.188 602.382C410.786 603.37 410.878 631.387 409.291 634.387C408.652 635.597 406.888 639.4 405.374 642.838C401.842 650.856 396.876 655.433 388.176 658.688C377.816 662.564 367.325 661.666 361.231 656.382C358.845 654.312 358.514 652.694 358.514 643.089C358.514 636.642 359.035 632.153 359.781 632.153C360.576 632.153 361.048 624.073 361.048 610.446V588.742L364.532 585.746C366.447 584.098 369.264 582.748 370.791 582.747C372.318 582.747 373.919 582.176 374.35 581.479C374.78 580.782 377.949 580.212 381.392 580.212C384.835 580.212 387.651 580.782 387.651 581.479ZM233.73 589.08C234.161 589.777 235.904 590.347 237.606 590.347C239.307 590.347 240.698 590.917 240.698 591.614C240.698 592.31 241.59 592.88 242.681 592.88C247.686 592.88 259.669 608.802 264.133 621.384C273.242 647.061 267.109 681.365 250.602 697.078C247.125 700.387 243.522 703.095 242.594 703.095C241.667 703.095 240.694 703.74 240.432 704.528C239.758 706.548 218.856 706.612 218.184 704.597C217.909 703.771 216.822 703.095 215.768 703.095C211.585 703.095 196.359 689.677 196.359 685.992C196.359 684.947 195.789 684.093 195.092 684.093C194.395 684.093 193.825 682.953 193.825 681.559C193.825 680.166 193.255 679.026 192.558 679.026C191.861 679.026 191.291 677.92 191.291 676.567C191.291 675.214 190.721 673.755 190.025 673.325C189.328 672.894 188.758 670.581 188.758 668.183C188.758 665.784 188.188 663.823 187.491 663.823C186.707 663.823 186.224 657.091 186.224 646.162C186.224 635.755 186.745 628.18 187.491 627.719C188.188 627.288 188.758 624.975 188.758 622.576C188.758 620.178 189.328 618.217 190.025 618.217C190.721 618.217 191.291 616.792 191.291 615.05C191.291 613.308 191.861 611.883 192.558 611.883C193.255 611.883 193.825 611.034 193.825 609.997C193.825 608.961 194.822 606.908 196.042 605.436C201.359 599.021 205.075 595.414 206.368 595.414C207.134 595.414 207.765 594.987 207.77 594.464C207.782 593.326 213.917 590.347 216.247 590.347C217.154 590.347 217.895 589.777 217.895 589.08C217.895 588.378 221.248 587.813 225.421 587.813C229.561 587.813 233.3 588.383 233.73 589.08ZM921.09 602.812C921.677 606.756 922.726 613.118 923.423 616.95C924.886 624.995 927.261 639.942 927.299 641.337C927.313 641.86 925.044 642.287 922.257 642.287C919.47 642.287 917.19 642.77 917.19 643.359C917.19 643.948 913.934 644.536 909.955 644.666C905.976 644.797 902.35 645.502 901.897 646.235C901.395 647.047 900.757 646.74 900.261 645.449C899.382 643.159 901.384 635.232 907.173 618.067C909.199 612.062 910.856 606.219 910.856 605.081C910.856 603.945 911.426 603.015 912.122 603.015C912.819 603.015 913.389 601.875 913.389 600.482C913.389 599.088 913.959 597.948 914.656 597.948C915.353 597.948 915.923 596.111 915.923 593.865V589.783L917.975 592.712C919.103 594.323 920.505 598.869 921.09 602.812Z"/>
</svg>
